<svg version="1.1" id="Layer_1" xmlns="http://www.w3.org/2000/svg" xmlns:xlink="http://www.w3.org/1999/xlink" x="0px" y="0px"
	 width="100%" viewBox="270 260 490 500" enable-background="new 0 0 1024 1024" xml:space="preserve">
<path fill="#5B6B2E" opacity="1.000000" stroke="none" 
	d="
M484.856140,629.169678 
	C477.761078,623.079529 471.094147,617.019592 464.041046,611.448547 
	C460.815369,608.900635 459.584961,606.209778 459.591644,602.161560 
	C459.681854,547.505920 459.560089,492.849854 459.732147,438.194611 
	C459.748657,432.954224 458.000580,429.592407 454.064484,426.342316 
	C434.543030,410.223297 415.240570,393.839294 395.818268,377.599640 
	C393.772369,375.888977 392.629761,374.107178 392.634216,371.265259 
	C392.677551,343.773041 392.586548,316.280609 392.539398,288.788239 
	C392.537964,287.949921 392.600922,287.113495 393.529999,286.592468 
	C395.614075,286.171692 396.293884,287.980011 397.302246,289.189209 
	C413.728119,308.886353 430.133087,328.600952 446.547150,348.307983 
	C450.418610,352.956116 451.315765,358.880066 453.172668,364.334259 
	C455.004089,369.713470 457.656494,374.057556 462.214600,377.647522 
	C470.978638,384.550140 479.272247,392.046753 487.920959,399.100830 
	C491.179504,401.758575 492.432556,404.703461 492.367310,408.966980 
	C492.117401,425.293121 492.243073,441.625458 492.276947,457.955353 
	C492.289062,463.798065 493.155090,464.591095 498.939270,464.569550 
	C508.422760,464.534180 517.908142,464.378235 527.388977,464.523285 
	C532.101379,464.595367 533.847412,462.748962 533.790344,457.988281 
	C533.594604,441.660828 533.828735,425.328247 533.644165,409.000519 
	C533.596436,404.780792 534.904297,401.785950 538.167725,399.110504 
	C547.827515,391.191162 557.281677,383.021362 566.849731,374.989380 
	C568.403931,373.684753 570.107361,372.432495 570.505066,370.383575 
	C573.879517,353.000488 585.687866,340.797211 596.407532,327.905029 
	C607.162598,314.970154 617.852112,301.980743 628.565796,289.011475 
	C629.613159,287.743622 630.441345,286.196228 632.758057,286.154022 
	C634.515259,289.278992 633.563660,292.854706 633.531311,296.115692 
	C633.283325,321.103821 633.095398,346.089966 633.709106,371.073669 
	C633.785339,374.175995 632.220825,375.977844 630.106140,377.755310 
	C611.758118,393.177490 593.592163,408.822266 575.010254,423.956635 
	C569.432983,428.499146 566.763306,432.988220 566.815857,440.574493 
	C567.186707,494.057617 566.941956,547.544739 567.049500,601.030273 
	C567.058716,605.612976 565.680420,608.657410 562.054688,611.617310 
	C547.349182,623.622314 532.854187,635.891296 518.489319,648.303345 
	C514.563599,651.695435 511.815918,652.396790 507.618103,648.444885 
	C500.475067,641.720276 492.659515,635.709961 484.856140,629.169678 
M513.963379,590.138733 
	C519.632751,585.503357 525.263489,580.819397 530.991150,576.257263 
	C533.192688,574.503662 533.705994,572.334595 533.700928,569.671265 
	C533.659424,548.013977 533.636658,526.356079 533.789429,504.699585 
	C533.818481,500.586670 532.384644,499.083923 528.254639,499.172455 
	C518.596497,499.379608 508.931000,499.236816 499.268463,499.243622 
	C492.936829,499.248108 492.302216,499.758148 492.285522,505.992645 
	C492.228485,527.316895 492.252777,548.641357 492.261871,569.965759 
	C492.262512,571.449402 491.956726,573.193848 493.215790,574.224915 
	C499.863190,579.668640 505.422516,586.477661 513.963379,590.138733 
z"/>
<path fill="#5B6B2E" opacity="1.000000" stroke="none" 
	d="
M647.366455,391.342712 
	C664.369934,376.872070 681.077332,362.602051 697.842285,348.400055 
	C699.269348,347.191162 700.532410,344.807922 702.805969,345.810150 
	C705.095520,346.819366 704.187988,349.323395 704.193604,351.211029 
	C704.238098,366.198273 703.961975,381.191528 704.324097,396.169891 
	C704.446777,401.247070 702.749451,404.654297 699.028198,407.739258 
	C685.450073,418.995636 671.963745,430.363098 658.479492,441.732117 
	C637.626404,459.314087 616.808716,476.937988 595.959045,494.524078 
	C593.961792,496.208710 592.064026,498.103119 589.636963,498.851471 
	C587.305115,497.501892 587.838318,495.488068 587.833435,493.751892 
	C587.788391,477.765717 587.843628,461.779144 587.769287,445.793182 
	C587.753845,442.470337 589.202515,440.308502 591.702637,438.219513 
	C610.226257,422.741730 628.638367,407.130524 647.366455,391.342712 
z"/>
<path fill="#5B6B2E" opacity="1.000000" stroke="none" 
	d="
M334.358795,413.663452 
	C333.095886,412.545715 332.242737,411.383026 331.095123,410.806488 
	C322.290375,406.383026 321.194275,398.936676 321.633392,389.994171 
	C322.277740,376.872498 321.783966,363.695801 321.827393,350.542725 
	C321.832611,348.959717 321.183563,346.963196 323.013824,346.013519 
	C324.898865,345.035400 326.088043,346.770721 327.294495,347.790375 
	C363.013519,377.978699 398.702515,408.202576 434.429199,438.381805 
	C436.703583,440.303040 438.272491,442.296356 438.254456,445.508301 
	C438.161743,461.991455 438.212433,478.475403 438.190643,494.959045 
	C438.189148,496.088318 438.370544,497.330292 436.282196,499.277069 
	C402.398865,470.814697 368.515503,442.352356 334.358795,413.663452 
z"/>
<path fill="#5B6B2E" opacity="1.000000" stroke="none" 
	d="
M701.011475,433.589661 
	C704.346436,432.497070 704.302124,434.668182 704.302063,436.495575 
	C704.301270,453.143097 704.218567,469.790619 704.236206,486.438080 
	C704.238831,488.881165 703.074951,490.443787 701.332520,491.908875 
	C676.628662,512.679810 651.950195,533.481079 627.259216,554.267334 
	C617.204102,562.732422 607.154724,571.204529 597.054443,579.615417 
	C594.679016,581.593506 592.610718,584.089478 589.555603,584.935852 
	C587.352356,583.617126 587.842896,581.617493 587.837830,579.877075 
	C587.792847,564.395325 587.835754,548.913208 587.777588,533.431580 
	C587.766235,530.407593 588.627136,528.049927 591.041382,526.022949 
	C627.617188,495.313538 664.142212,464.543579 701.011475,433.589661 
z"/>
<path fill="#5B6B2E" opacity="1.000000" stroke="none" 
	d="
M399.376434,554.636414 
	C375.213898,534.419556 351.392914,514.347656 327.394043,494.490753 
	C323.301086,491.104218 321.573517,487.551300 321.719788,482.137177 
	C322.111084,467.651947 321.823669,453.148865 321.861816,438.653015 
	C321.866425,436.902527 321.280579,434.958618 322.904297,433.448517 
	C325.103943,432.909149 326.218933,434.651672 327.539459,435.763977 
	C363.334076,465.916077 399.102814,496.098938 434.887573,526.262695 
	C436.732117,527.817505 438.203583,529.461060 438.195526,532.098022 
	C438.144562,548.760193 438.150909,565.422607 438.098389,582.084839 
	C438.095947,582.860962 437.711975,583.635864 437.182678,585.625427 
	C423.815918,575.714600 411.994293,564.955933 399.376434,554.636414 
z"/>
<path fill="#4A4A4A" opacity="1.000000" stroke="none" 
	d="
M723.352051,743.665222 
	C722.323059,741.813477 721.862610,740.090454 722.711487,738.561646 
	C725.715332,733.152222 726.238342,727.700378 724.866943,721.571472 
	C723.543945,715.658875 728.031555,711.760620 734.993286,711.791870 
	C736.893127,711.800354 738.816650,712.638855 740.135803,710.129272 
	C741.014404,708.457886 742.868835,709.364563 744.137878,710.088196 
	C745.656128,710.953735 745.218140,712.341858 744.555237,713.575317 
	C743.842468,714.901367 743.306274,716.123596 743.546936,717.789185 
	C744.607605,725.132507 742.233154,728.192871 734.925781,729.243896 
	C734.126038,729.358887 733.316589,729.406372 731.223877,729.611389 
	C734.591187,731.502014 737.170959,731.367126 739.623047,731.684448 
	C743.294067,732.159668 745.898254,733.789612 746.312317,737.811768 
	C746.718933,741.761353 745.312561,744.928345 741.452698,746.079468 
	C735.288940,747.917603 729.044189,748.783447 723.352051,743.665222 
M732.144958,741.677063 
	C734.673645,741.604126 737.682800,742.719604 739.099670,739.141846 
	C736.769226,737.572998 734.399048,737.256226 732.199219,737.615173 
	C729.263611,738.094116 728.263794,739.561829 732.144958,741.677063 
M731.491150,719.928284 
	C731.228149,722.071411 731.967896,723.510742 734.303833,723.575867 
	C735.819031,723.618103 736.643738,722.592102 737.118103,721.258240 
	C737.557251,720.023438 737.221069,718.939819 736.219116,718.193970 
	C734.342102,716.796814 732.874268,717.482117 731.491150,719.928284 
z"/>
<path fill="#4A4A4A" opacity="1.000000" stroke="none" 
	d="
M469.903870,716.122742 
	C473.909485,711.314636 478.561188,711.041321 483.788452,713.318909 
	C485.282562,711.215454 484.597107,708.994873 484.654266,706.950623 
	C484.723083,704.489563 485.169678,702.743896 488.209045,702.750366 
	C490.872498,702.756104 491.779449,704.198242 491.785889,706.480591 
	C491.811737,715.615601 491.787964,724.750916 491.751251,733.885925 
	C491.739563,736.793335 489.805237,737.954407 487.455200,737.137329 
	C484.625824,736.153503 482.228088,736.681335 479.502808,737.358276 
	C474.696259,738.552368 470.556885,736.141479 468.817139,731.408081 
	C466.958099,726.349976 467.067505,721.303162 469.903870,716.122742 
M483.381348,720.239380 
	C478.954010,717.125549 475.773712,718.094238 475.273712,722.860901 
	C474.965515,725.798767 474.588776,728.934631 477.740875,730.903931 
	C479.186951,731.807312 480.585388,731.673950 481.940033,730.766235 
	C484.908661,728.776917 484.890015,725.804382 484.470978,722.748657 
	C484.383698,722.111938 484.009857,721.514465 483.381348,720.239380 
z"/>
<path fill="#4A4A4A" opacity="1.000000" stroke="none" 
	d="
M663.276489,711.044861 
	C663.283936,712.973083 663.364441,713.801453 665.546814,713.159241 
	C674.776978,710.442688 678.308838,713.161133 678.344482,722.661682 
	C678.358215,726.326294 678.326538,729.991272 678.356567,733.655701 
	C678.373901,735.766357 677.772522,737.179077 675.301208,737.248779 
	C672.781006,737.319885 671.616516,736.278015 671.637329,733.733093 
	C671.665894,730.236084 671.719360,726.728760 671.490356,723.243713 
	C671.336731,720.905151 670.897522,718.271667 667.666748,718.422791 
	C664.607666,718.565918 663.410583,720.728821 663.330322,723.536499 
	C663.235229,726.865662 663.234680,730.198669 663.258850,733.529602 
	C663.276123,735.903320 662.470520,737.267151 659.806213,737.304626 
	C657.032227,737.343567 655.843445,736.129761 655.847290,733.437866 
	C655.859802,724.776001 655.839539,716.114136 655.827209,707.452271 
	C655.823669,704.947449 656.064819,702.790649 659.448975,702.720642 
	C663.157410,702.643982 663.364441,704.967102 663.280212,707.675232 
	C663.249146,708.673706 663.275085,709.674011 663.276489,711.044861 
z"/>
<path fill="#4A4A4A" opacity="1.000000" stroke="none" 
	d="
M294.308075,711.894348 
	C301.575043,712.835510 303.268860,714.702087 303.356171,721.513000 
	C303.407410,725.506653 303.370667,729.501465 303.401184,733.495483 
	C303.418854,735.805603 302.762909,737.313599 300.010956,737.259460 
	C297.270233,737.205627 296.686127,735.637451 296.694916,733.364441 
	C296.707794,730.035950 296.674194,726.707336 296.653320,723.378784 
	C296.637573,720.866821 296.184479,718.478577 293.060059,718.431702 
	C290.002228,718.385681 288.602783,720.536804 288.410248,723.276123 
	C288.177368,726.589905 288.254303,729.929626 288.292847,733.257019 
	C288.322662,735.829651 287.499847,737.338257 284.585449,737.308838 
	C281.630493,737.279114 280.931549,735.596069 280.935547,733.122620 
	C280.949829,724.301880 280.956696,715.481201 280.953461,706.660461 
	C280.952484,704.038879 282.020294,702.667297 284.854248,702.737610 
	C287.511841,702.803589 288.309814,704.208923 288.273682,706.560486 
	C288.238495,708.851440 288.266083,711.143433 288.266083,713.807739 
	C290.523285,713.061218 292.221161,712.499756 294.308075,711.894348 
z"/>
<path fill="#4A4A4A" opacity="1.000000" stroke="none" 
	d="
M376.743347,725.515747 
	C371.962158,728.263489 366.999207,726.146912 362.318695,727.145813 
	C363.419800,731.602234 365.787933,732.850342 369.644653,730.452637 
	C372.221802,728.850464 374.572052,728.390076 376.022156,731.026855 
	C377.554504,733.813232 374.747498,735.145935 372.818115,736.254578 
	C368.196991,738.909790 360.424744,737.608887 357.145905,733.822449 
	C353.708221,729.852600 353.467438,720.873779 356.679871,716.443909 
	C359.670227,712.320312 366.027130,710.707825 371.094421,712.787476 
	C375.831818,714.731689 377.583496,718.407654 376.743347,725.515747 
M367.854095,718.350525 
	C365.488373,717.835205 363.470215,717.961792 362.659027,720.880981 
	C368.403259,722.351501 369.205078,722.013245 367.854095,718.350525 
z"/>
<path fill="#4A4A4A" opacity="1.000000" stroke="none" 
	d="
M629.969177,733.915649 
	C624.844849,737.980957 618.469910,738.699768 613.999207,735.969482 
	C609.717407,733.354431 607.644348,727.433289 608.896301,721.393799 
	C609.996643,716.085388 613.619812,712.555298 619.101379,711.979858 
	C623.800232,711.486450 628.295288,712.599243 630.850037,716.852417 
	C634.180725,722.397278 634.184998,728.178650 629.969177,733.915649 
M625.120667,728.330139 
	C625.948242,726.431824 625.904236,724.422485 625.517822,722.490479 
	C624.842102,719.112061 621.660767,717.372803 618.797974,718.673157 
	C616.220154,719.844055 616.128662,722.219360 616.091492,724.564514 
	C616.048096,727.306885 616.367371,729.961121 619.336792,731.177856 
	C621.760803,732.171204 623.436035,730.929260 625.120667,728.330139 
z"/>
<path fill="#4A4A4A" opacity="1.000000" stroke="none" 
	d="
M328.281433,725.817627 
	C328.465454,728.176941 327.723511,730.309937 329.743561,731.761108 
	C331.145691,732.768311 331.472565,734.229431 330.805389,735.738159 
	C329.943451,737.687378 327.837769,737.752258 326.500427,737.153442 
	C323.227264,735.687866 320.375061,736.451477 317.148743,737.334534 
	C312.638306,738.569031 308.768280,736.073425 307.811218,732.120422 
	C306.704071,727.547607 308.762482,724.468567 313.749420,722.776917 
	C316.075867,721.987793 319.152893,722.569580 320.647797,719.427246 
	C318.207916,717.377197 315.884552,718.091797 313.733826,719.413025 
	C311.846680,720.572266 310.394562,720.719116 309.150085,718.642090 
	C307.653717,716.144592 309.310638,714.896606 311.143341,713.934509 
	C315.451416,711.672852 320.005035,710.657227 324.461548,713.257996 
	C329.230164,716.041016 328.157288,720.959778 328.281433,725.817627 
M319.294922,726.410645 
	C318.205536,726.761230 317.060455,726.997375 316.041626,727.493042 
	C314.911133,728.043030 314.290039,729.041382 314.840393,730.338562 
	C315.362274,731.568542 316.468811,731.883606 317.698730,731.800476 
	C320.416962,731.616821 321.364777,729.328064 319.294922,726.410645 
z"/>
<path fill="#4A4A4A" opacity="1.000000" stroke="none" 
	d="
M393.776978,725.836304 
	C393.859619,720.919373 394.836212,716.763306 398.783813,714.015869 
	C403.644196,710.633118 410.999390,711.319519 414.902802,715.394104 
	C419.107605,719.783325 419.476074,728.693970 415.650269,733.470398 
	C412.327179,737.619202 404.519775,738.958923 399.621796,736.196472 
	C395.761414,734.019226 394.350372,730.385742 393.776978,725.836304 
M410.696777,726.944275 
	C410.651886,725.300049 410.913666,723.573547 410.498993,722.028564 
	C409.602173,718.687012 407.155914,717.466187 404.021149,718.838684 
	C400.840637,720.231140 401.209503,723.351868 401.260284,726.170898 
	C401.307098,728.771545 402.491302,730.788147 405.001923,731.381836 
	C407.886963,732.063965 409.643585,730.351990 410.696777,726.944275 
z"/>
<path fill="#4A4A4A" opacity="1.000000" stroke="none" 
	d="
M536.809143,737.496460 
	C530.787415,737.713989 526.711853,735.397217 524.811890,729.972290 
	C522.907166,724.533875 523.587402,719.358582 527.605408,715.097229 
	C530.784546,711.725525 537.053345,711.025391 541.611450,713.058594 
	C546.782715,715.365295 549.300598,721.026611 548.187927,727.845703 
	C547.243591,733.633362 543.774719,736.672852 536.809143,737.496460 
M532.196533,729.029663 
	C533.343872,730.875183 534.922058,732.054321 537.146545,731.406982 
	C539.197876,730.810059 540.522217,729.315186 540.733582,727.105713 
	C540.999695,724.325012 541.591919,721.388062 538.991577,719.293762 
	C537.447144,718.049805 535.578552,717.915039 533.867798,718.919312 
	C530.906799,720.657593 531.245972,723.617004 531.387939,726.433716 
	C531.420410,727.078003 531.682251,727.710815 532.196533,729.029663 
z"/>
<path fill="#4A4A4A" opacity="1.000000" stroke="none" 
	d="
M697.656128,713.217407 
	C702.383545,712.437012 706.789795,712.971558 711.291504,712.047241 
	C715.634521,711.155518 718.953979,714.929016 719.217712,719.784668 
	C719.470337,724.436218 719.267700,729.111572 719.301270,733.776245 
	C719.316772,735.924255 718.619690,737.240417 716.174500,737.279236 
	C713.770325,737.317444 712.279480,736.455383 712.204346,733.933899 
	C712.100098,730.437622 712.158569,726.936096 712.034180,723.440857 
	C711.951355,721.111145 712.031128,718.369080 708.636047,718.439270 
	C705.551575,718.503052 704.343567,720.658264 704.256958,723.483704 
	C704.159973,726.646790 704.182312,729.813538 704.152344,732.978699 
	C704.129944,735.343872 703.719421,737.240234 700.648682,737.305664 
	C697.408691,737.374756 696.648804,735.581909 696.762695,732.877869 
	C697.034973,726.412476 696.058350,719.909851 697.656128,713.217407 
z"/>
<path fill="#4A4A4A" opacity="1.000000" stroke="none" 
	d="
M505.005402,737.262817 
	C497.289490,735.651489 494.545410,726.708435 497.243866,719.207581 
	C499.320160,713.436035 505.713104,710.582764 512.024353,712.448486 
	C518.588928,714.389099 521.306396,719.475525 520.298706,727.936218 
	C519.598022,733.819214 515.428528,737.309204 508.879700,737.451355 
	C507.718750,737.476624 506.554718,737.362305 505.005402,737.262817 
M510.546112,730.960083 
	C513.922485,728.080383 514.424805,724.501831 512.442322,720.786438 
	C510.811188,717.729675 507.983490,717.292297 505.416321,719.539612 
	C502.946045,721.701965 502.799927,724.812439 503.808746,727.776489 
	C504.761200,730.575012 506.706512,732.141296 510.546112,730.960083 
z"/>
<path fill="#4A4A4A" opacity="1.000000" stroke="none" 
	d="
M438.021912,713.666992 
	C443.491638,711.462341 444.625336,712.163269 444.593475,717.336365 
	C444.560760,722.646545 444.450531,727.956116 444.402496,733.266235 
	C444.382782,735.444824 443.851074,737.948120 441.284149,737.089111 
	C437.544922,735.837708 434.266418,737.521790 430.781464,737.554688 
	C425.812744,737.601624 422.993225,735.094299 422.745239,730.058228 
	C422.516876,725.421448 422.755096,720.763550 422.660431,716.117554 
	C422.608551,713.573181 423.753510,712.573914 426.208832,712.457214 
	C429.170563,712.316467 429.351135,714.157410 429.337585,716.326721 
	C429.316864,719.646545 429.333435,722.966858 429.361847,726.286682 
	C429.382935,728.750732 429.785919,731.265808 432.794830,731.428589 
	C435.556763,731.578003 437.070557,729.391357 437.316589,726.971008 
	C437.751312,722.694275 437.700897,718.368286 438.021912,713.666992 
z"/>
<path fill="#4A4A4A" opacity="1.000000" stroke="none" 
	d="
M340.410034,721.651489 
	C341.025879,720.687988 341.437897,719.983154 341.893951,719.203064 
	C340.068573,717.557312 337.991455,718.491089 336.126465,718.277588 
	C334.287994,718.067200 332.911102,717.627075 332.790588,715.442383 
	C332.673035,713.310730 333.804810,712.324036 335.728271,712.280579 
	C340.037170,712.183350 344.368164,711.968933 348.653839,712.288818 
	C352.107422,712.546631 352.966095,715.986206 350.386383,719.489319 
	C347.649963,723.205200 344.580414,726.675842 341.343262,730.636658 
	C344.030365,731.962708 346.506500,731.530518 348.862518,731.687256 
	C350.521820,731.797485 351.835754,732.197937 351.898834,734.168091 
	C351.964844,736.228516 350.890411,737.235046 348.879486,737.251038 
	C344.731812,737.284058 340.583801,737.306641 336.436127,737.290527 
	C334.796478,737.284180 332.949005,737.494690 332.255829,735.452515 
	C331.632507,733.616089 331.906219,731.844177 333.186432,730.308655 
	C335.522797,727.506226 337.865875,724.709351 340.410034,721.651489 
z"/>
<path fill="#4A4A4A" opacity="1.000000" stroke="none" 
	d="
M573.519165,715.629639 
	C579.384705,711.126709 585.422729,710.641479 589.817017,714.153503 
	C591.222107,715.276489 593.046448,716.663147 591.549683,718.655945 
	C590.290833,720.331970 588.577271,721.923828 586.134827,719.843262 
	C583.381409,717.497864 580.657837,717.499695 578.562012,720.748169 
	C576.497192,723.948608 577.296997,728.835022 580.043030,730.683350 
	C582.432739,732.291748 584.618896,731.602112 586.233887,729.627441 
	C588.180054,727.247986 590.089600,727.894348 591.735535,729.524963 
	C593.800537,731.570618 591.833557,733.206360 590.541016,734.580627 
	C587.152100,738.183777 582.771423,738.132812 578.478455,737.076721 
	C574.487366,736.094971 571.666687,733.297791 570.976807,729.217163 
	C570.200806,724.627686 569.906250,719.903320 573.519165,715.629639 
z"/>
<path fill="#4A4A4A" opacity="1.000000" stroke="none" 
	d="
M461.550262,712.227722 
	C464.108246,712.374939 465.322418,713.407043 465.120514,715.737244 
	C464.953430,717.665771 463.620270,718.127502 461.991577,718.244324 
	C455.906128,718.681030 458.869354,723.362854 458.404724,726.268799 
	C457.991608,728.852173 458.371002,731.539856 462.219513,730.998169 
	C464.534637,730.672363 465.072235,732.207336 465.381439,733.949402 
	C465.768127,736.127747 464.389984,736.838684 462.594421,737.305298 
	C456.348145,738.928650 452.410950,736.126709 451.316437,729.587402 
	C450.589325,725.243286 452.608582,720.229431 448.068512,716.679321 
	C447.201660,716.001404 447.168030,713.727295 448.778778,712.732910 
	C451.511108,711.046021 451.814575,706.075989 456.493805,707.043396 
	C457.950928,707.344666 458.255219,708.435791 458.287781,709.656128 
	C458.339264,711.587097 459.394379,712.297302 461.550262,712.227722 
z"/>
<path fill="#4A4A4A" opacity="1.000000" stroke="none" 
	d="
M652.184753,716.042236 
	C651.729736,716.945862 651.417908,717.605957 650.900024,717.889099 
	C649.255920,718.787964 646.338257,717.476562 645.814514,720.038025 
	C645.260986,722.745300 645.370178,725.642578 645.565979,728.430420 
	C645.708252,730.456482 647.456726,731.008667 649.265320,730.899292 
	C651.747070,730.749207 652.496155,732.439758 652.683838,734.315186 
	C652.937378,736.848755 650.848877,737.095154 649.035583,737.408569 
	C642.483215,738.540894 639.059692,735.556763 638.616089,728.847656 
	C638.343628,724.727112 640.623047,719.758484 635.254395,716.959290 
	C634.842346,716.744507 634.799744,715.379883 634.944885,714.618225 
	C635.434570,712.049805 641.502136,707.383057 644.328369,707.272461 
	C645.983948,708.314026 644.784607,710.525085 646.268005,711.807556 
	C648.183289,712.978699 652.441772,710.839783 652.184753,716.042236 
z"/>
<path fill="#4A4A4A" opacity="1.000000" stroke="none" 
	d="
M381.466278,732.060547 
	C380.467590,723.330444 381.270721,714.993958 381.016602,706.672180 
	C380.937286,704.074951 382.074341,702.669800 384.921997,702.743286 
	C387.629150,702.813110 388.290466,704.304443 388.282898,706.617920 
	C388.261139,713.283508 388.264008,719.949341 388.301300,726.614868 
	C388.310455,728.244995 387.933838,730.093140 389.505585,731.248352 
	C391.467957,732.690552 392.944550,734.796814 391.214142,736.617920 
	C389.390503,738.537048 386.506104,737.736877 384.215881,736.524536 
	C382.671021,735.706726 381.881195,734.199524 381.466278,732.060547 
z"/>
<path fill="#4A4A4A" opacity="1.000000" stroke="none" 
	d="
M603.245300,716.007080 
	C603.248291,719.830139 603.220642,723.156982 603.266235,726.482727 
	C603.295105,728.585938 602.883240,730.750549 605.371216,732.132385 
	C606.799866,732.925781 606.790344,734.815735 606.233521,736.208801 
	C605.550415,737.917480 603.826965,737.641296 602.331543,737.549377 
	C598.262024,737.299316 596.191406,734.689819 596.055054,731.058472 
	C595.743103,722.755249 595.873779,714.435120 595.847168,706.121765 
	C595.838867,703.530945 597.353271,702.704407 599.736328,702.756714 
	C601.955078,702.805481 603.186951,703.744385 603.203796,706.031006 
	C603.227051,709.190735 603.232544,712.350525 603.245300,716.007080 
z"/>
<path fill="#4A4A4A" opacity="1.000000" stroke="none" 
	d="
M552.775452,732.770264 
	C552.768127,727.646423 552.756653,722.996643 552.776611,718.347107 
	C552.781616,717.187439 552.801819,716.015869 552.966919,714.871643 
	C553.242188,712.964111 554.964966,712.121521 556.247437,712.730408 
	C560.279358,714.644470 565.064148,709.701843 568.324768,713.859375 
	C569.578735,715.458252 568.860291,718.727661 565.602905,718.932800 
	C561.138000,719.213867 560.097961,721.869690 560.172791,725.653687 
	C560.218689,727.977478 560.200623,730.303772 560.151123,732.627747 
	C560.104492,734.817749 560.183472,737.059937 557.019775,737.265137 
	C554.048035,737.457947 552.656067,736.207092 552.775452,732.770264 
z"/>
<path fill="#4A4A4A" opacity="1.000000" stroke="none" 
	d="
M691.283325,717.293030 
	C691.279541,722.894775 691.236450,728.030762 691.280823,733.165955 
	C691.302490,735.666504 690.658264,737.288635 687.694092,737.297913 
	C684.831421,737.306824 683.887329,735.839844 683.889038,733.293762 
	C683.892761,727.826904 683.912170,722.359863 683.880493,716.893188 
	C683.865479,714.296509 684.423157,712.221863 687.595215,712.195068 
	C690.783569,712.168091 691.419983,714.194214 691.283325,717.293030 
z"/>
<path fill="#4A4A4A" opacity="1.000000" stroke="none" 
	d="
M688.597290,702.867981 
	C691.298523,704.020691 692.331360,705.744263 691.244629,708.176025 
	C690.395386,710.076477 688.633972,710.743774 686.663818,710.384277 
	C684.516602,709.992371 683.643005,708.395630 683.778015,706.348816 
	C683.956055,703.648193 685.665222,702.654236 688.597290,702.867981 
z"/>
</svg>